<svg xmlns="http://www.w3.org/2000/svg" viewBox="0 0 460 401"><path d="M207.57 34.97L76.89 232.41l197.43 130.68L405 165.65 207.57 34.97zm-24.29 237.27l-71.04-47.02 47.02-71.04 71.04 47.02-47.02 71.04zm55.5-83.85l-71.04-47.02 47.02-71.04 71.04 47.02-47.02 71.04zm27.94 139.07l-71.04-47.02 47.02-71.04 71.04 47.02-47.02 71.04zm55.49-83.85l-71.04-47.02 47.02-71.04 71.04 47.02-47.02 71.04z"/><path d="M189.78 38.89L59.1 236.32 256.54 367l130.68-197.43L189.78 38.89zM165.5 276.15l-71.04-47.02 47.02-71.04 71.04 47.02-47.02 71.04zm55.49-83.85l-71.04-47.02 47.02-71.04 71.04 47.02-47.02 71.04zm27.94 139.08l-71.04-47.02 47.02-71.04 71.04 47.02-47.02 71.04zm55.5-83.85l-71.04-47.02 47.02-71.04 71.04 47.02-47.02 71.04z" fill="#19b091"/></svg>