<svg width="13" height="13" xmlns="http://www.w3.org/2000/svg"><path d="M0 0v11h1V1h10V0z" fill="#62a1c3"/><path d="M0 11v1h1v-1zM12 1V0h-1v1z" fill="#5f9bbb"/><path d="M1 1v1h4V1zm1 6V6H1v1zm-1 4h4v-1H2V9H1zm2-5V5H2v1zm2 0h1V4H5zm0 3v1h1V9zm3-4H7v1h1z" fill="#84d8ff"/><path d="M1 2v4h1V2zm1 5H1v2h1zm1-2v1h2V5zm7-3v8h1V1H5v3h1V2zM6 6H5v3h1zm-1 4v1h5v-1z" fill="#7ecff4"/><path d="M8 5v1h1V5z" fill="#7ecff4"/><path d="M1 11v1h11V1h-1v10z" fill="#5a93b1"/><path d="M12 12H1v1h12V1h-1zM3 5V3h2V2H2v3z" fill="#3b3e43"/><path d="M3 10V8h2V7H2v3zm4-8v3h1V3h2V2zm0 8h1V8h2V7H7z" fill="#3b3e43"/><path d="M2 7h2V6H2zm4-3h1V2H6zm0 3h2V6H7V5H6zm1 2H6v1h1z" fill="#72bbde"/><path d="M5 7V6H4v1zm1-3v1h1V4zm0 5h1V7H6zm3-2V6H8v1zm0-1h1V5H9zm1 4v1h1v-1z" fill="#78c5e8"/><path d="M10 7V6H9v1z" fill="#6db2d4"/></svg>