<svg xmlns="http://www.w3.org/2000/svg" viewBox="0 0 51.632 13"><path d="M0 0v11h1V1h10V0z" fill="#62a1c3"/><path d="M0 11v1h1v-1zM12 1V0h-1v1z" fill="#5f9bbb"/><path d="M1 1v1h4V1zm1 6V6H1v1zm-1 4h4v-1H2V9H1zm2-5V5H2v1zm2 0h1V4H5zm0 3v1h1V9zm3-4H7v1h1z" fill="#84d8ff"/><path d="M1 2v4h1V2zm1 5H1v2h1zm1-2v1h2V5zm7-3v8h1V1H5v3h1V2zM6 6H5v3h1zm-1 4v1h5v-1z" fill="#7ecff4"/><path d="M8 5v1h1V5z" fill="#7ecff4"/><path d="M1 11v1h11V1h-1v10z" fill="#5a93b1"/><path d="M12 12H1v1h12V1h-1zM3 5V3h2V2H2v3z" fill="#3b3e43"/><path d="M3 10V8h2V7H2v3zm4-8v3h1V3h2V2zm0 8h1V8h2V7H7z" fill="#3b3e43"/><path d="M2 7h2V6H2zm4-3h1V2H6zm0 3h2V6H7V5H6zm1 2H6v1h1z" fill="#72bbde"/><path d="M5 7V6H4v1zm1-3v1h1V4zm0 5h1V7H6zm3-2V6H8v1zm0-1h1V5H9zm1 4v1h1v-1z" fill="#78c5e8"/><path d="M10 7V6H9v1z" fill="#6db2d4"/><path d="M16.685 5.478h-.978V4.5h3.42v.978h-.977v3.91h-1.465zm5.621 1.955h-.49v1.955h-1.465V4.5h3.42v1.956h-.488v.488h.488v2.444h-1.465zm-.49-1.955v.978h.49v-.978zm5.134 1.955h-.49v1.955h-1.466V4.5h3.421v4.888h-1.466zm-.49-1.955v.978h.49v-.978zm3.178-.978h3.42v2.933h-1.954v1.955h-1.466zm1.466.978v.978h.489v-.978zM34.28 4.5h2.933v.49h.488v3.908h-.488v.49H34.28zm1.466.978V8.41h.49V5.478zm3.178-.978h3.42v4.888h-3.42zm1.466.978V8.41h.489V5.478zm3.177-.978h3.421v4.888h-3.42zm1.466.978V8.41h.49V5.478zm5.133 1.955h-.49v1.955h-1.465V4.5h3.42v1.956h-.487v.488h.488v2.444h-1.466zm-.49-1.955v.978h.49v-.978z" fill="#bfc1c5"/><path d="M16.194 4.988h-.977V4.01h3.42v.978h-.977v3.91h-1.466zm5.621 1.955h-.489v1.954H19.86V4.01h3.421v1.955h-.488v.49h.488v2.442h-1.466zm-.489-1.955v.977h.49v-.977zm5.133 1.955h-.49v1.954h-1.465V4.01h3.42v4.887H26.46zm-.49-1.955v.977h.49v-.977zm3.178-.978h3.421v2.933h-1.955v1.954h-1.466zm1.466.978v.977h.49v-.977zm3.177-.978h2.933v.49h.488v3.91h-.488v.488H33.79zm1.466.978V7.92h.49V4.988zm3.178-.978h3.42v4.887h-3.42zm1.465.978V7.92h.49V4.988zm3.178-.978h3.421v4.887h-3.42zm1.466.978V7.92h.49V4.988zm5.133 1.955h-.49v1.954h-1.465V4.01h3.42v1.955h-.488v.49h.489v2.442h-1.466zm-.49-1.955v.977h.49v-.977z" fill="#3b3e43"/></svg>