<svg xmlns="http://www.w3.org/2000/svg" viewBox="0 0 1251.899 332.026"><path d="M148.464 0L17.785 197.434 215.22 328.113l130.679-197.434zm-24.285 237.264l-71.043-47.022 47.023-71.044 71.043 47.023zm55.498-83.847l-71.043-47.023 47.022-71.043L226.7 82.374zm27.937 139.071l-71.043-47.022 47.022-71.043 71.043 47.022zm55.497-83.847l-71.043-47.023 47.022-71.043 71.044 47.023z"/><path d="M130.679 3.914L0 201.348l197.434 130.678 130.679-197.434zm-24.285 237.264l-71.043-47.023 47.022-71.043 71.044 47.023zm55.498-83.848l-71.044-47.022 47.023-71.043 71.043 47.022zm27.937 139.072l-71.044-47.023 47.023-71.043 71.043 47.023zm55.497-83.848l-71.043-47.022 47.022-71.043 71.043 47.022z" fill="#19b091"/><path d="M490.639 82.161v38.146H472.18v-20.303H440.19v109.31h15.586v17.02h-52.501v-17.02h15.586v-109.31h-32.608v20.303h-18.458V82.161zM555.036 129.536a29.068 29.068 0 017.383.82l-1.846 21.328a24.292 24.292 0 00-8.408-1.23 30.208 30.208 0 00-12.51 2.769 22.507 22.507 0 00-10.152 9.639 28.684 28.684 0 00-3.999 14.663v31.788h16.407v17.022h-52.502v-17.022h15.587v-60.295h-15.587v-17.022h33.019l.82 19.278a30.263 30.263 0 0119.278-19.585 41.473 41.473 0 0112.51-2.153zM683.622 149.018h-15.586v60.295h15.586v17.022h-33.017v-14.97a39.994 39.994 0 01-15.28 12.406 47.172 47.172 0 01-20.405 4.41 43.404 43.404 0 01-17.637-3.692 44.303 44.303 0 01-14.664-10.356 47.747 47.747 0 01-9.74-15.69 55.035 55.035 0 010-38.555 46.974 46.974 0 019.843-15.689 45.471 45.471 0 0114.766-10.357 43.89 43.89 0 0117.842-3.691 44.982 44.982 0 0120.2 4.511 41.347 41.347 0 0115.075 12.51v-15.176h33.017zm-64.19 60.705a27.763 27.763 0 0020.714-8.921 31.61 31.61 0 000-43.375 27.927 27.927 0 00-20.714-8.819 31.749 31.749 0 00-12.715 2.974q-6.768 2.976-11.587 10.562a31.078 31.078 0 00-4.82 17.022 32.795 32.795 0 003.794 15.176 27.042 27.042 0 0010.767 11.382 28.844 28.844 0 0014.56 4zM763.809 130.15a43.872 43.872 0 0132.198 14.05 48.831 48.831 0 019.639 15.688 55.042 55.042 0 010 38.556 47.86 47.86 0 01-9.741 15.689 44.38 44.38 0 01-14.665 10.356 43.413 43.413 0 01-17.636 3.692 46.783 46.783 0 01-18.356-3.59 39.26 39.26 0 01-14.458-10.356v35.07h15.586v17.021h-51.27v-17.021h15.586v-99.056h-15.586v-18.253h32.608l.82 14.767a41.008 41.008 0 0115.176-12.203 46.02 46.02 0 0120.099-4.41zm-4.307 79.573a27.396 27.396 0 0020.816-8.819q8.305-8.815 8.305-21.738a30.303 30.303 0 00-8.408-21.739 27.501 27.501 0 00-20.713-8.819q-12.92 0-21.124 8.717-8.204 8.718-8.203 21.84 0 13.127 8.203 21.842 8.2 8.72 21.124 8.716zM922.541 209.313h15.586v17.022h-32.403l-1.436-14.97a42.145 42.145 0 01-15.073 12.304 44.86 44.86 0 01-37.428.82 44.306 44.306 0 01-14.663-10.356 47.749 47.749 0 01-9.742-15.69 52.411 52.411 0 01-3.486-19.072 52.993 52.993 0 013.486-19.278 48.11 48.11 0 019.845-15.791 44.717 44.717 0 0114.765-10.46 43.403 43.403 0 0117.637-3.691 45.433 45.433 0 0118.458 3.691 40.605 40.605 0 0114.356 10.46V96.928h-15.586V79.906h35.684zm-49.015.41q12.921 0 21.124-8.716 8.2-8.714 8.203-21.841 0-13.122-8.203-21.841-8.205-8.716-21.124-8.717a27.405 27.405 0 00-20.816 8.82q-8.305 8.819-8.305 21.738a30.09 30.09 0 008.51 21.738 27.574 27.574 0 0020.61 8.82zM999.446 228.386a51.174 51.174 0 01-19.38-3.692 50.06 50.06 0 01-15.996-10.254 46.78 46.78 0 01-10.768-15.689 50.145 50.145 0 010-38.76 47.96 47.96 0 0110.768-15.792 49.263 49.263 0 0115.996-10.357 52.72 52.72 0 0138.76 0 49.325 49.325 0 0115.997 10.357 48.078 48.078 0 0110.767 15.792 50.145 50.145 0 010 38.76 46.893 46.893 0 01-10.767 15.69 50.125 50.125 0 01-15.997 10.253 51.197 51.197 0 01-19.38 3.692zm0-18.457a27.814 27.814 0 0020.816-8.82 30.101 30.101 0 008.51-21.738q0-13.122-8.51-21.944a28.734 28.734 0 00-41.427 0q-8.512 8.82-8.51 21.944a30.09 30.09 0 008.51 21.738 27.574 27.574 0 0020.61 8.82zM1114.084 228.386a51.174 51.174 0 01-19.38-3.692 50.06 50.06 0 01-15.996-10.254 46.78 46.78 0 01-10.767-15.689 50.145 50.145 0 010-38.76 47.96 47.96 0 0110.767-15.792 49.263 49.263 0 0115.996-10.357 52.72 52.72 0 0138.761 0 49.325 49.325 0 0115.996 10.357 48.078 48.078 0 0110.768 15.792 50.145 50.145 0 010 38.76 46.893 46.893 0 01-10.768 15.69 50.125 50.125 0 01-15.996 10.253 51.197 51.197 0 01-19.38 3.692zm0-18.457a27.814 27.814 0 0020.817-8.82 30.101 30.101 0 008.51-21.738q0-13.122-8.51-21.944a28.734 28.734 0 00-41.427 0q-8.512 8.82-8.51 21.944a30.09 30.09 0 008.51 21.738 27.574 27.574 0 0020.61 8.82zM1244.516 129.536a29.068 29.068 0 017.383.82l-1.846 21.328a24.29 24.29 0 00-8.408-1.23 30.215 30.215 0 00-12.511 2.769 22.503 22.503 0 00-10.151 9.639 28.684 28.684 0 00-4 14.663v31.788h16.407v17.022h-52.501v-17.022h15.587v-60.295h-15.587v-17.022h33.018l.82 19.278a30.263 30.263 0 0119.28-19.585 41.473 41.473 0 0112.509-2.153z"/></svg>
